<?xml version="1.0" standalone="no"?><!DOCTYPE svg PUBLIC "-//W3C//DTD SVG 1.1//EN" "http://www.w3.org/Graphics/SVG/1.1/DTD/svg11.dtd"><svg t="1518096485860" class="icon" style="" viewBox="0 0 1024 1024" version="1.1" xmlns="http://www.w3.org/2000/svg" p-id="1109" data-spm-anchor-id="a313x.7781069.0.i4" xmlns:xlink="http://www.w3.org/1999/xlink" width="200" height="200"><defs><style type="text/css"></style></defs><path d="M480.42491 16.446859c-260.772288 0-472.232193 211.396466-472.232193 472.231186 0 260.771281 211.459906 472.230179 472.232193 472.230179 260.771281 0 472.231186-211.458899 472.231186-472.230179C952.656097 227.843326 741.196191 16.446859 480.42491 16.446859zM480.42491 897.944335c-226.031784 0-409.267297-183.235512-409.267297-409.26629 0-226.032791 183.235512-409.268304 409.267297-409.268304 226.030778 0 409.26629 183.235512 409.26629 409.268304C889.6912 714.70983 706.455688 897.944335 480.42491 897.944335z" p-id="1110" fill="#ffffff"></path><path d="M446.422517 266.643936 290.610856 672.344541l57.062032 0 44.518193-122.916936 169.64543 0 47.345768 122.916936 61.059707 0L504.219638 266.643936 446.422517 266.643936zM407.684338 505.772387l44.517186-119.042111c9.408131-25.641512 16.724783-51.404868 21.888531-77.476357 6.213012 22.012388 15.865837 50.053513 28.778227 84.117332l42.302856 112.401136L407.684338 505.772387z" p-id="1111" fill="#ffffff"></path></svg>